<?xml version="1.0" standalone="no"?>
<!DOCTYPE svg PUBLIC "-//W3C//DTD SVG 20010904//EN"
 "http://www.w3.org/TR/2001/REC-SVG-20010904/DTD/svg10.dtd">
<svg version="1.0" xmlns="http://www.w3.org/2000/svg"
 width="213.000000pt" height="237.000000pt" viewBox="0 0 213.000000 237.000000"
 preserveAspectRatio="xMidYMid meet">

<g transform="translate(0.000000,237.000000) scale(0.100000,-0.100000)"
fill="#000000" stroke="none">
<path d="M950 2363 c-57 -10 -148 -36 -192 -55 l-47 -20 0 -171 c0 -192 7
-243 44 -322 50 -104 181 -218 270 -232 l35 -6 0 407 0 406 -42 -1 c-24 -1
-54 -4 -68 -6z m-13 -323 c26 0 31 -15 7 -24 -12 -5 -14 -14 -9 -37 7 -31 7
-32 -16 -15 -21 14 -25 14 -46 1 -22 -15 -22 -14 -17 15 5 22 2 31 -10 36 -24
9 -19 24 8 24 17 0 26 7 31 28 l8 27 10 -27 c8 -20 18 -28 34 -28z"/>
<path d="M1090 2354 c0 -9 7 -111 15 -228 8 -116 19 -285 25 -375 5 -90 12
-166 14 -168 2 -3 14 0 25 7 25 13 25 21 6 175 -8 66 -21 188 -30 270 -25 247
-37 335 -46 335 -5 0 -9 -7 -9 -16z"/>
<path d="M1140 2355 c0 -20 26 -181 75 -460 15 -82 29 -166 32 -185 8 -60 11
-64 31 -40 20 25 22 12 -52 355 -15 66 -35 165 -47 219 -20 101 -38 152 -39
111z"/>
<path d="M1180 2352 c0 -5 6 -28 14 -53 8 -24 26 -87 40 -139 62 -228 109
-395 112 -399 2 -2 8 8 15 22 10 21 4 49 -41 189 -111 348 -125 388 -132 388
-4 0 -8 -4 -8 -8z"/>
<path d="M1228 2334 c6 -11 39 -98 75 -194 83 -221 92 -242 100 -233 15 14 6
51 -32 138 -22 50 -59 137 -83 194 -24 57 -49 106 -56 109 -11 3 -12 0 -4 -14z"/>
<path d="M1291 2298 c11 -24 42 -88 69 -143 l49 -100 0 116 1 116 -59 27 c-79
35 -84 34 -60 -16z"/>
<path d="M29 1391 c-18 -14 -24 -29 -24 -61 0 -50 16 -64 95 -87 69 -19 80
-28 80 -64 0 -32 -31 -59 -68 -59 -27 0 -92 59 -92 84 0 9 -4 16 -10 16 -5 0
-10 -25 -10 -55 0 -55 6 -65 28 -43 8 8 15 8 24 1 23 -18 63 -23 101 -12 63
17 84 92 40 142 -9 9 -47 26 -84 37 -72 22 -90 42 -69 80 7 14 21 20 45 20 50
0 64 -8 88 -54 l22 -41 3 44 c4 58 -3 77 -24 61 -11 -10 -18 -10 -26 -2 -19
19 -93 14 -119 -7z"/>
<path d="M1070 1401 c0 -5 9 -11 20 -14 19 -5 20 -14 20 -131 0 -119 -1 -126
-20 -126 -11 0 -20 -4 -20 -10 0 -15 180 -12 210 3 14 7 31 26 39 42 12 25 12
32 0 54 -8 14 -24 30 -36 36 l-21 11 24 21 c29 26 31 62 5 94 -17 22 -27 24
-120 26 -56 1 -101 -2 -101 -6z m164 -21 c21 -8 26 -16 26 -45 0 -41 -33 -68
-77 -63 -25 3 -28 7 -31 47 -2 24 -1 50 2 57 6 16 44 18 80 4z m23 -142 c7 -6
13 -28 13 -49 0 -46 -22 -62 -78 -57 -37 3 -37 3 -40 52 -5 72 1 80 50 72 23
-4 48 -12 55 -18z"/>
<path d="M1895 1400 c3 -5 13 -10 21 -10 11 0 14 -23 14 -124 0 -117 -1 -124
-22 -139 -22 -15 -21 -16 35 -16 56 -1 77 12 37 22 -23 6 -28 48 -6 66 11 9
19 3 42 -26 18 -24 24 -38 16 -41 -29 -9 -8 -22 38 -22 28 0 50 5 50 10 0 6
-6 10 -13 10 -7 0 -30 23 -51 51 l-38 51 23 24 c12 13 31 24 41 24 10 0 18 5
18 10 0 6 -22 10 -50 10 -27 0 -50 -4 -50 -10 0 -5 8 -10 17 -10 13 0 10 -7
-12 -30 -16 -16 -32 -30 -37 -30 -4 0 -8 43 -8 95 l0 95 -36 0 c-21 0 -33 -4
-29 -10z"/>
<path d="M270 1356 c0 -14 -11 -33 -25 -44 -29 -23 -32 -32 -10 -32 12 0 15
-14 15 -62 0 -84 7 -105 36 -111 37 -7 69 14 72 48 l3 30 -13 -25 c-8 -14 -22
-25 -33 -25 -18 0 -20 8 -23 73 l-3 72 31 0 c16 0 30 5 30 10 0 6 -13 10 -30
10 -28 0 -30 2 -30 40 0 22 -4 40 -10 40 -5 0 -10 -11 -10 -24z"/>
<path d="M409 1281 c-58 -58 -28 -171 46 -173 47 -1 74 11 90 42 38 74 -8 160
-86 160 -11 0 -34 -13 -50 -29z m90 -5 c16 -19 25 -79 17 -111 -4 -14 -18 -31
-31 -37 -21 -9 -28 -8 -45 7 -26 23 -28 115 -4 139 19 20 48 21 63 2z"/>
<path d="M1368 1302 c-29 -3 -39 -22 -13 -22 12 0 15 -15 15 -75 0 -60 -3 -75
-15 -75 -8 0 -15 -4 -15 -10 0 -5 23 -10 50 -10 28 0 50 5 50 10 0 6 -7 10
-15 10 -22 0 -21 98 1 129 15 21 18 21 26 7 5 -9 18 -16 28 -16 25 0 28 45 4
54 -25 9 -33 7 -54 -14 -15 -15 -20 -16 -20 -6 0 19 -9 23 -42 18z"/>
<path d="M1564 1300 c-33 -13 -54 -50 -54 -93 0 -51 15 -76 56 -93 29 -12 39
-12 68 0 42 17 56 42 56 96 0 72 -62 116 -126 90z m70 -32 c34 -48 10 -148
-34 -148 -29 0 -50 39 -50 92 0 72 50 105 84 56z"/>
<path d="M1764 1300 c-50 -20 -69 -92 -39 -149 17 -33 33 -41 85 -41 51 0 80
35 80 97 0 75 -61 120 -126 93z m70 -26 c34 -34 11 -154 -30 -154 -29 0 -54
38 -54 83 0 72 45 110 84 71z"/>
<path d="M570 1290 c0 -5 7 -10 15 -10 12 0 15 -15 15 -75 0 -60 -3 -75 -15
-75 -8 0 -15 -4 -15 -10 0 -5 23 -10 50 -10 28 0 50 5 50 10 0 6 -7 10 -15 10
-12 0 -15 13 -15 56 0 66 13 94 43 94 36 0 47 -20 47 -82 0 -43 -4 -60 -15
-64 -30 -12 -14 -24 30 -24 25 0 45 5 45 10 0 6 -4 10 -10 10 -5 0 -10 26 -10
58 0 79 -16 106 -63 110 -21 2 -45 -2 -53 -9 -10 -8 -14 -8 -14 0 0 6 -16 11
-35 11 -19 0 -35 -4 -35 -10z"/>
<path d="M796 1281 c11 -10 35 -53 54 -95 l33 -77 -20 -26 c-23 -32 -43 -41
-43 -19 0 9 -8 16 -20 16 -15 0 -20 -7 -20 -25 0 -22 4 -25 33 -25 44 0 60 19
101 116 47 113 58 134 68 134 4 0 8 5 8 10 0 6 -19 10 -42 10 -38 -1 -41 -2
-25 -14 22 -17 22 -28 -4 -78 l-21 -42 -22 55 c-20 49 -21 55 -7 66 13 10 6
12 -38 13 -54 0 -54 0 -35 -19z"/>
<path d="M150 970 c0 -5 11 -10 25 -10 l25 0 0 -102 c0 -57 3 -112 6 -124 17
-62 173 -74 201 -15 4 9 10 66 13 126 5 105 6 110 28 113 44 7 21 22 -33 22
-30 0 -55 -4 -55 -10 0 -5 9 -10 20 -10 19 0 20 -7 20 -106 0 -58 -5 -114 -10
-124 -11 -21 -67 -35 -99 -25 -45 14 -51 30 -51 146 0 102 1 109 20 109 11 0
20 5 20 10 0 6 -28 10 -65 10 -37 0 -65 -4 -65 -10z"/>
<path d="M713 964 c-3 -8 -1 -20 5 -26 15 -15 43 8 35 28 -7 19 -32 18 -40 -2z"/>
<path d="M1534 969 c-8 -14 21 -43 35 -35 6 4 11 16 11 27 0 21 -34 27 -46 8z"/>
<path d="M1660 935 c0 -9 -11 -27 -25 -41 -29 -29 -31 -34 -10 -34 12 0 15
-16 15 -84 0 -77 2 -85 21 -91 32 -11 64 2 77 30 15 32 15 45 2 45 -5 0 -10
-8 -10 -19 0 -10 -7 -25 -16 -32 -27 -22 -45 15 -42 86 l3 60 35 6 35 6 -32 2
c-32 1 -33 3 -33 41 0 22 -4 40 -10 40 -5 0 -10 -7 -10 -15z"/>
<path d="M450 870 c-12 -8 -11 -10 8 -10 21 0 22 -4 22 -75 0 -60 -3 -76 -17
-84 -14 -8 -5 -10 37 -10 30 1 47 3 38 6 -15 4 -18 16 -18 67 0 69 10 86 51
86 32 0 39 -14 39 -85 0 -41 -4 -56 -17 -64 -13 -8 11 -10 87 -10 76 0 100 2
88 10 -15 8 -18 25 -18 94 l0 85 -35 0 c-38 0 -47 -14 -15 -23 19 -5 21 -12
18 -79 l-3 -73 -35 0 -35 0 -5 78 c-5 81 -14 97 -56 97 -11 0 -29 -7 -40 -15
-25 -19 -34 -19 -34 0 0 17 -37 20 -60 5z"/>
<path d="M910 873 c0 -2 5 -12 12 -22 9 -14 8 -27 -4 -57 -9 -21 -20 -40 -25
-41 -5 -2 -18 19 -30 47 -20 46 -20 51 -5 60 13 7 4 9 -33 10 -32 0 -45 -3
-36 -9 7 -5 30 -46 50 -91 20 -45 41 -82 46 -81 6 0 24 34 40 75 17 41 39 82
49 89 18 14 17 15 -22 19 -23 2 -42 2 -42 1z"/>
<path d="M1013 856 c-24 -21 -28 -32 -28 -76 0 -44 4 -55 28 -76 39 -33 104
-29 129 10 16 23 7 26 -21 5 -36 -27 -73 -20 -89 16 -7 14 -12 30 -12 35 0 6
32 10 70 10 l70 0 -6 28 c-8 37 -49 72 -84 72 -16 0 -41 -11 -57 -24z m79 2
c9 -7 19 -23 23 -35 6 -22 4 -23 -45 -23 -49 0 -51 1 -45 23 7 21 31 47 45 47
3 0 13 -6 22 -12z"/>
<path d="M1165 870 c-3 -5 3 -10 14 -10 19 0 21 -6 21 -75 0 -60 -3 -76 -17
-84 -14 -8 -3 -10 42 -10 33 1 51 4 40 6 -11 3 -23 10 -27 16 -10 16 2 100 18
125 l15 23 19 -23 c14 -17 21 -20 30 -12 7 7 10 20 8 30 -4 24 -50 30 -68 10
-16 -20 -30 -20 -30 -1 0 17 -55 21 -65 5z"/>
<path d="M1366 867 c-12 -9 -17 -23 -14 -47 3 -32 7 -36 51 -51 26 -9 53 -21
59 -27 16 -16 -8 -42 -38 -42 -24 0 -64 31 -64 50 0 6 -4 10 -10 10 -5 0 -10
-18 -10 -40 0 -39 12 -52 26 -29 4 8 9 8 17 0 17 -17 72 -13 90 7 40 44 12 92
-61 107 -39 8 -53 33 -28 50 23 17 55 7 68 -21 16 -34 28 -30 28 9 0 32 -1 33
-48 35 -27 1 -56 -4 -66 -11z"/>
<path d="M1512 871 c-10 -6 -9 -10 7 -14 19 -5 21 -13 21 -76 0 -56 -3 -72
-17 -80 -14 -8 -5 -10 37 -10 30 1 47 3 38 6 -16 4 -18 17 -18 94 l0 89 -27 0
c-16 0 -34 -4 -41 -9z"/>
<path d="M1763 858 c17 -13 77 -146 77 -171 0 -18 -38 -67 -51 -67 -6 0 -8 4
-5 9 9 15 -18 31 -34 21 -18 -12 -2 -43 24 -48 35 -7 63 27 110 134 26 59 55
114 64 121 15 11 11 12 -27 13 -38 0 -42 -2 -29 -12 15 -12 14 -18 -5 -66 -20
-52 -21 -53 -33 -30 -28 50 -37 90 -23 99 9 6 -4 9 -35 9 -42 0 -47 -2 -33
-12z"/>
<path d="M78 264 c-26 -14 -51 -70 -43 -97 2 -7 6 -24 9 -39 7 -29 49 -58 86
-58 12 0 34 13 50 30 l27 29 11 -24 c6 -14 22 -27 36 -31 50 -12 86 34 72 91
-13 52 -99 52 -112 0 -3 -14 -11 -25 -18 -25 -6 0 -16 -10 -21 -22 -7 -17 -20
-24 -48 -26 -32 -3 -38 0 -47 23 -13 34 -13 101 0 126 8 13 21 19 46 19 30 0
37 -5 49 -32 l14 -33 1 40 0 40 -43 2 c-23 1 -54 -5 -69 -13z m210 -76 c16
-16 15 -83 -2 -97 -19 -16 -46 -3 -47 23 -2 35 2 60 13 74 13 15 21 15 36 0z"/>
<path d="M1283 265 c-23 -16 -30 -49 -14 -73 4 -7 28 -19 51 -26 48 -14 67
-34 57 -60 -4 -11 -18 -16 -42 -16 -29 0 -39 6 -55 33 l-20 32 0 -44 c0 -32 3
-42 11 -34 7 7 19 8 38 0 20 -7 35 -6 57 4 24 12 29 20 29 49 0 36 -5 40 -80
72 -41 18 -41 52 0 56 23 3 35 -3 52 -25 l23 -28 0 32 c0 24 -5 32 -17 32 -10
0 -29 3 -43 6 -15 4 -34 0 -47 -10z"/>
<path d="M1540 254 c0 -17 22 -14 28 4 2 7 -3 12 -12 12 -9 0 -16 -7 -16 -16z"/>
<path d="M895 245 c-4 -11 -15 -28 -23 -37 -10 -12 -11 -18 -4 -18 8 0 12 -19
12 -50 0 -40 4 -51 21 -60 24 -13 49 2 49 29 -1 14 -2 14 -11 -2 -18 -30 -29
-18 -29 32 0 39 4 51 18 54 15 4 15 5 0 6 -11 1 -18 12 -20 34 -3 28 -5 29
-13 12z"/>
<path d="M632 201 c-7 -4 -25 -6 -39 -3 -18 3 -24 1 -19 -7 13 -20 15 -68 7
-121 l-8 -50 31 1 c17 0 25 3 19 6 -7 2 -13 16 -13 30 0 22 3 24 25 19 54 -14
88 71 45 114 -22 22 -29 24 -48 11z m33 -61 c0 -41 -2 -45 -25 -45 -21 0 -26
5 -28 33 -5 47 4 64 30 60 20 -3 23 -9 23 -48z"/>
<path d="M805 199 c-11 -4 -14 -8 -7 -8 14 -1 17 -68 3 -89 -5 -8 -17 -12 -27
-10 -15 2 -20 14 -22 56 -3 45 -6 52 -24 52 -15 0 -18 -3 -10 -13 6 -7 11 -32
10 -56 0 -47 14 -65 47 -54 11 3 36 6 55 6 19 -1 27 1 18 4 -13 3 -18 18 -20
62 -3 54 -5 57 -23 50z"/>
<path d="M980 190 c-23 -23 -26 -68 -6 -95 20 -27 96 -22 96 7 0 7 -5 6 -14
-2 -23 -18 -61 -8 -64 18 -3 20 1 22 41 22 40 0 45 2 40 20 -6 22 -39 50 -60
50 -7 0 -22 -9 -33 -20z m60 -9 c15 -28 13 -31 -20 -31 -31 0 -39 17 -18 38
17 17 26 15 38 -7z"/>
<path d="M1150 200 c-8 -5 -28 -7 -45 -4 -16 2 -24 2 -17 -2 7 -3 12 -25 12
-54 0 -29 -5 -50 -12 -53 -7 -3 5 -5 27 -5 22 0 34 2 28 5 -16 6 -17 72 -2 93
8 11 12 12 16 3 7 -18 33 -16 33 1 0 18 -23 27 -40 16z"/>
<path d="M1443 200 c-47 -19 -40 -107 9 -124 22 -8 32 -6 48 9 24 22 20 31 -8
14 -32 -20 -52 -5 -52 39 0 40 20 69 39 58 6 -4 8 -13 4 -21 -3 -9 1 -15 11
-15 21 0 21 36 0 44 -19 7 -23 7 -51 -4z"/>
<path d="M1611 184 c-35 -44 -23 -96 24 -108 28 -7 65 8 65 26 0 9 -3 9 -12 0
-17 -17 -55 -15 -62 4 -11 29 -6 34 39 34 30 0 45 4 45 13 0 22 -23 46 -51 52
-21 5 -31 1 -48 -21z m57 4 c21 -21 13 -38 -18 -38 -31 0 -39 17 -18 38 15 15
21 15 36 0z"/>
<path d="M1796 203 c-3 -3 -25 -6 -48 -6 -24 0 -35 -1 -25 -4 13 -3 17 -15 17
-47 0 -23 -5 -47 -12 -54 -9 -9 -4 -12 23 -11 18 0 28 3 22 6 -18 7 -16 78 2
93 27 22 45 4 45 -44 0 -26 -5 -46 -12 -49 -7 -3 3 -5 22 -5 19 0 29 2 23 5
-8 3 -13 24 -13 53 0 38 -4 52 -19 59 -10 6 -21 7 -25 4z"/>
<path d="M1910 203 c-42 -17 -53 -80 -19 -114 20 -20 48 -19 77 4 19 15 7 20
-16 6 -32 -20 -52 -5 -52 39 0 40 20 69 39 58 6 -4 8 -13 4 -21 -3 -9 1 -15
11 -15 21 0 21 36 0 44 -18 7 -23 7 -44 -1z"/>
<path d="M2013 200 c-45 -18 -42 -103 4 -121 30 -11 73 2 73 22 0 8 -4 8 -14
-1 -23 -18 -61 -8 -64 18 -3 20 1 22 43 22 43 0 46 1 40 23 -4 12 -10 25 -14
28 -12 13 -47 17 -68 9z m45 -12 c21 -21 13 -38 -18 -38 -31 0 -39 17 -18 38
15 15 21 15 36 0z"/>
<path d="M348 193 c7 -3 12 -23 12 -53 0 -29 -5 -50 -12 -53 -7 -3 3 -5 22 -5
19 0 29 2 23 5 -17 6 -16 64 1 88 8 11 19 16 30 12 20 -8 23 -92 4 -100 -7 -3
3 -5 22 -5 19 0 29 2 23 5 -18 7 -16 78 2 93 27 22 45 4 45 -44 0 -26 -5 -46
-12 -49 -7 -3 3 -6 22 -6 19 0 30 3 23 7 -6 4 -13 30 -15 57 l-3 50 -100 1
c-55 1 -94 -1 -87 -3z"/>
<path d="M1528 193 c7 -3 12 -24 12 -53 0 -29 -5 -50 -12 -53 -7 -3 5 -5 27
-5 22 0 32 2 22 5 -16 4 -18 13 -15 59 3 52 2 54 -22 53 -14 0 -19 -3 -12 -6z"/>
</g>
</svg>
