<?xml version="1.0" standalone="no"?>
<!DOCTYPE svg PUBLIC "-//W3C//DTD SVG 20010904//EN"
 "http://www.w3.org/TR/2001/REC-SVG-20010904/DTD/svg10.dtd">
<svg version="1.0" xmlns="http://www.w3.org/2000/svg"
 width="1024.000000pt" height="1024.000000pt" viewBox="0 0 1024.000000 1024.000000"
 preserveAspectRatio="xMidYMid meet">

<g transform="translate(0.000000,1024.000000) scale(0.100000,-0.100000)"
fill="#000000" stroke="none">
<path d="M0 5120 l0 -5120 5120 0 5120 0 0 5120 0 5120 -5120 0 -5120 0 0
-5120z m5585 2945 c219 -29 483 -97 685 -175 264 -102 562 -274 783 -452 135
-108 394 -367 496 -497 341 -431 554 -934 626 -1476 36 -270 29 -679 -15 -941
-74 -433 -238 -836 -483 -1188 -123 -178 -190 -259 -342 -415 -489 -503 -1105
-807 -1810 -892 -129 -16 -448 -16 -595 0 -161 17 -382 58 -470 88 -8 2 44 26
117 53 l131 49 94 -14 c596 -89 1147 6 1698 292 274 142 485 296 700 512 160
161 257 279 372 456 129 198 184 301 265 500 144 350 203 668 203 1080 0 462
-94 870 -295 1280 -271 554 -722 1011 -1276 1293 -367 187 -694 276 -1108 302
-394 26 -796 -39 -1181 -191 -287 -112 -597 -297 -829 -493 -201 -169 -459
-469 -590 -686 -231 -379 -380 -843 -407 -1269 l-7 -101 -79 0 -78 0 6 73 c54
669 272 1225 676 1725 279 344 737 690 1143 862 305 130 613 209 926 240 133
12 501 4 644 -15z m-535 -379 c0 -35 3 -78 6 -95 6 -29 5 -31 -23 -31 -29 0
-30 1 -37 61 -3 34 -6 77 -6 95 0 31 3 34 30 34 l30 0 0 -64z m274 -33 c-5
-72 -4 -94 4 -89 7 4 12 5 12 2 0 -2 3 -12 7 -22 4 -12 3 -15 -5 -10 -7 4 -12
3 -12 -2 0 -6 7 -12 15 -16 10 -4 20 5 30 27 l14 32 -6 -30 c-3 -16 -10 -32
-15 -33 -4 -2 -5 -9 -2 -14 5 -7 2 -8 -7 -2 -8 5 -31 10 -53 11 -21 1 -40 4
-43 7 -3 3 -2 57 2 121 l7 115 29 0 29 0 -6 -97z m-511 40 c4 -21 9 -53 13
-70 6 -31 5 -33 -24 -33 -28 0 -31 3 -41 50 -15 70 -14 78 12 83 12 2 25 5 28
6 4 0 9 -16 12 -36z m847 23 c0 -3 -16 -58 -35 -124 -29 -103 -40 -147 -44
-184 -1 -4 -15 -2 -32 4 -35 12 -36 -4 12 180 l34 128 33 0 c17 0 32 -2 32 -4z
m-1080 -53 c0 -10 3 -28 6 -40 5 -19 2 -23 -15 -23 -15 0 -26 10 -36 32 -16
39 -12 48 21 48 16 0 24 -6 24 -17z m1408 -32 c11 -7 2 -33 -43 -125 -51 -102
-56 -118 -44 -133 12 -16 12 -17 -2 -6 -13 11 -18 9 -27 -13 -15 -31 -15 -44
-1 -24 9 12 10 11 6 -7 -3 -16 -1 -20 9 -16 9 3 12 13 9 27 -5 19 -5 19 5 3 9
-14 7 -25 -10 -54 -14 -23 -16 -32 -6 -24 8 7 21 9 27 5 8 -4 9 -3 5 4 -4 7
-2 12 3 12 6 0 11 7 11 15 0 8 9 19 20 25 16 9 18 8 14 -5 -3 -8 -10 -12 -16
-9 -5 3 -8 0 -7 -7 3 -22 -24 -80 -36 -75 -5 2 -9 9 -7 15 1 7 -2 10 -8 6 -5
-3 -23 3 -39 14 -16 12 -34 21 -40 21 -29 0 -17 42 55 195 78 162 89 177 122
156z m-1633 -30 c-3 -6 -14 -11 -23 -11 -15 1 -15 2 2 15 21 16 32 13 21 -4z
m1973 -106 c22 -16 22 -16 -56 -123 -105 -143 -169 -240 -150 -225 8 7 19 9
23 5 5 -4 5 -2 1 5 -3 6 -2 14 4 18 5 3 10 2 10 -3 0 -6 9 -8 20 -5 14 4 20 0
20 -11 0 -21 14 -20 48 2 22 14 18 5 -22 -46 -27 -35 -54 -66 -62 -69 -7 -2
-26 7 -41 22 -15 14 -40 34 -55 43 -16 9 -28 22 -28 28 0 6 43 72 95 145 52
74 109 155 127 182 17 26 34 47 37 47 4 0 16 -7 29 -15z m-1388 -22 c741 -99
1371 -567 1699 -1263 89 -189 157 -421 182 -620 14 -108 18 -379 6 -457 l-8
-53 35 23 c18 12 47 29 64 38 26 15 31 24 37 77 4 33 5 79 3 103 -2 41 -1 44
23 47 45 5 858 -80 877 -92 7 -4 12 -20 12 -37 0 -21 -5 -29 -17 -29 -16 -1
-16 -2 -2 -10 14 -8 17 -34 18 -160 l2 -151 -28 7 c-112 26 -409 113 -562 164
-101 33 -184 60 -185 58 -164 -239 -327 -461 -334 -453 -3 2 0 11 7 19 6 8 11
18 9 22 -1 5 2 29 7 54 5 25 9 47 10 50 0 3 3 10 6 15 9 15 4 60 -7 57 -51
-14 -89 -12 -180 7 -57 12 -109 19 -116 15 -7 -4 -29 -20 -48 -34 -81 -62
-588 -420 -603 -426 -16 -6 -79 23 -205 93 l-64 36 -61 -44 c-34 -23 -128 -94
-209 -156 -144 -110 -205 -153 -220 -153 -8 0 1 31 11 40 3 3 12 15 19 28 19
34 -8 39 -70 13 -48 -20 -53 -20 -75 -5 -14 8 -26 14 -28 12 -4 -4 -35 -188
-35 -208 0 -25 280 -80 761 -150 152 -22 280 -40 285 -41 12 -1 -24 -15 -146
-59 -58 -20 -130 -47 -161 -58 -34 -13 -70 -19 -90 -17 -19 3 -88 11 -154 20
-66 8 -204 30 -307 50 -103 19 -191 35 -195 35 -4 0 -1 5 7 10 12 8 11 10 -8
10 -15 0 -26 -8 -31 -24 -15 -37 -85 -415 -79 -421 3 -3 74 13 159 36 381 101
536 151 914 294 127 48 264 100 305 115 41 16 116 45 165 65 303 125 1027 415
1265 507 113 44 211 82 218 85 7 3 12 -4 12 -19 0 -13 -6 -31 -12 -40 -7 -9
-137 -66 -288 -126 -300 -120 -630 -253 -810 -327 -63 -27 -146 -60 -185 -75
-38 -16 -178 -72 -310 -125 -632 -255 -965 -372 -1417 -499 l-56 -16 -7 -51
c-4 -27 -5 -53 -2 -56 13 -12 594 178 917 300 220 83 400 155 1280 512 239 97
469 189 510 205 41 16 133 51 205 79 71 28 130 51 131 51 1 0 -4 -18 -10 -41
-14 -47 33 -23 -451 -231 -1203 -518 -1856 -778 -2392 -953 -127 -42 -233 -81
-236 -89 -3 -7 -8 -42 -12 -79 l-7 -66 193 65 c507 171 739 264 1924 769 742
316 929 395 931 392 1 -1 -10 -27 -25 -57 -22 -46 -35 -60 -81 -85 -78 -42
-251 -124 -570 -269 -151 -68 -365 -166 -475 -216 -110 -51 -297 -135 -415
-187 -118 -52 -258 -114 -310 -138 -239 -108 -671 -287 -889 -367 -255 -93
-363 -130 -368 -124 -14 14 57 446 151 916 153 764 169 884 170 1235 1 327
-16 518 -48 550 -12 11 -232 121 -491 244 -258 124 -488 234 -509 245 -42 22
-58 46 -32 46 26 0 306 -130 1226 -570 140 -67 268 -134 283 -148 16 -15 51
-71 79 -126 69 -133 124 -165 203 -116 72 44 115 128 115 223 0 75 -25 122
-80 149 -49 25 -86 23 -196 -13 -86 -27 -101 -30 -140 -20 -49 13 -241 94
-356 152 l-76 38 -4 153 c-4 171 -15 207 -82 265 -54 48 -94 57 -218 49 -109
-7 -110 -7 -106 15 2 15 14 26 38 34 l35 12 5 87 c3 54 10 90 18 95 9 5 5 21
-18 62 -38 69 -38 85 3 105 66 33 117 98 117 147 0 24 -2 24 -37 16 -133 -32
-129 -33 -227 13 -83 39 -98 43 -171 43 -64 0 -89 -5 -125 -24 -94 -48 -147
-123 -157 -216 -7 -63 20 -130 93 -232 25 -35 44 -66 41 -69 -2 -2 -16 0 -29
5 -81 31 -273 72 -306 67 -20 -4 -70 -6 -111 -5 -40 0 -93 -5 -117 -12 -36
-11 -44 -18 -50 -43 -5 -25 -1 -34 27 -58 56 -48 92 -68 125 -68 35 0 71 -29
80 -67 4 -14 -6 -102 -22 -197 -36 -217 -38 -329 -5 -404 45 -100 118 -118
243 -60 37 17 70 29 71 27 101 -143 160 -270 183 -385 20 -109 18 -133 -21
-218 -56 -122 -68 -184 -62 -311 3 -74 13 -138 30 -195 13 -47 28 -98 31 -114
4 -16 4 -119 0 -229 l-7 -199 -45 -41 c-59 -56 -103 -114 -267 -357 -153 -226
-213 -311 -229 -322 -6 -4 -17 -1 -25 7 -12 12 -11 20 14 55 15 22 25 43 22
46 -3 3 -39 0 -80 -7 l-75 -13 -78 70 -77 69 94 7 c52 4 142 10 201 14 l107 6
31 47 c16 26 30 50 30 52 0 3 -145 3 -321 1 l-322 -5 7 28 c4 15 10 40 13 56
l6 29 151 0 c83 0 241 3 351 7 l200 6 55 80 c30 44 78 106 106 137 l52 56 4
94 3 94 -140 59 c-77 32 -239 92 -360 133 -221 75 -228 85 -30 43 113 -24 329
-89 443 -133 l87 -33 3 70 c2 38 -1 73 -5 78 -4 4 -91 30 -193 59 -198 56
-224 65 -214 81 4 8 9 8 17 0 7 -7 16 -7 29 0 11 6 22 8 25 5 3 -3 -5 -10 -18
-15 -18 -7 -5 -9 46 -6 48 2 61 1 40 -5 l-30 -8 33 -1 c18 0 31 -5 28 -10 -8
-13 23 -18 69 -12 l40 5 -40 7 -40 6 38 2 c21 0 52 -6 69 -15 16 -9 27 -11 23
-4 -5 7 2 9 22 5 24 -5 23 -4 -7 9 -31 13 -233 51 -315 60 -28 3 -30 7 -33 46
-3 34 2 48 22 69 30 32 46 72 45 114 l-1 32 -12 -40 -13 -40 -6 85 c-7 84 -35
217 -57 275 l-12 30 -15 -40 c-36 -98 -63 -230 -63 -307 0 -71 2 -81 25 -102
20 -19 25 -33 25 -75 0 -55 0 -56 -63 -42 -23 6 -54 12 -69 16 -28 5 -28 6
-28 83 0 68 3 83 25 112 26 36 46 91 44 125 -1 12 -6 5 -13 -17 -13 -43 -25
-59 -19 -25 6 32 -21 185 -50 277 l-23 75 -33 -80 c-70 -166 -72 -320 -7 -374
12 -10 16 -33 16 -88 l0 -75 -62 7 c-35 4 -66 9 -70 12 -14 8 -8 54 9 84 15
25 16 38 5 110 -6 44 -21 117 -33 162 l-22 81 -35 -104 c-46 -141 -51 -196
-23 -252 26 -54 28 -83 5 -74 -9 3 -42 6 -75 6 l-59 0 0 117 c0 93 3 120 16
134 24 27 43 89 43 139 l-1 45 -13 -48 c-19 -68 -25 -69 -25 -4 0 52 -40 268
-59 319 -6 17 -15 -4 -39 -93 -61 -225 -64 -291 -16 -348 22 -27 24 -37 24
-140 l0 -111 -89 0 -89 0 -4 133 c-5 128 -4 133 19 158 41 45 63 120 62 212
l-1 82 -13 -65 c-27 -126 -33 -134 -34 -40 -1 47 -10 146 -21 220 -24 159 -75
381 -83 360 -14 -40 -81 -302 -99 -388 -27 -133 -22 -247 15 -319 15 -28 36
-58 47 -66 19 -13 21 -25 22 -153 l0 -139 -35 -3 c-42 -4 -35 -19 -81 193 -56
261 -61 313 -61 630 0 317 10 399 75 655 153 604 525 1156 996 1476 157 106
310 172 534 229 250 63 535 76 820 38z m1735 -173 c20 -23 48 10 -255 -303
-89 -92 -111 -117 -70 -80 22 21 24 21 37 5 13 -15 13 -15 4 4 -15 30 7 48 33
28 15 -11 22 -11 34 -1 12 9 16 9 19 -1 3 -6 9 -10 14 -6 5 3 9 2 8 -3 -4 -22
3 -24 29 -8 15 9 -9 -17 -53 -58 -58 -55 -83 -72 -92 -65 -7 6 -10 15 -6 21 3
5 2 7 -4 4 -5 -3 -31 16 -58 43 l-49 49 190 194 c104 107 192 195 195 196 3 0
14 -8 24 -19z m-491 -94 c-3 -9 -10 -16 -15 -16 -5 0 -4 9 3 20 14 22 21 20
12 -4z m811 -166 c18 -20 18 -21 -5 -37 -37 -26 -303 -234 -320 -250 -13 -12
-13 -13 5 -7 11 4 27 12 35 18 13 9 13 9 2 -5 -10 -13 -8 -21 13 -43 13 -14
20 -26 15 -26 -5 0 -12 5 -15 10 -3 6 -11 10 -17 10 -6 0 -3 -8 8 -19 13 -13
24 -16 36 -10 47 25 23 3 -52 -47 -47 -31 -92 -62 -101 -70 -19 -17 -29 -18
-29 -3 0 6 -9 24 -21 40 -18 25 -19 32 -7 47 12 15 11 16 -5 3 -15 -12 -19
-12 -32 5 -8 10 -14 26 -12 34 2 13 461 368 478 369 3 1 14 -8 24 -19z m-545
-44 c0 -2 -8 -10 -17 -17 -16 -13 -17 -12 -4 4 13 16 21 21 21 13z m815 -246
c10 -11 16 -22 14 -23 -26 -22 -127 -82 -277 -167 -100 -56 -185 -107 -188
-112 -4 -5 8 -3 24 6 37 19 43 20 40 5 -2 -6 3 -14 11 -16 9 -4 11 0 6 16 -4
13 -2 21 5 21 6 0 8 -5 5 -11 -4 -6 2 -13 14 -16 27 -7 27 -23 1 -23 -11 0
-20 -7 -20 -15 0 -15 23 -11 46 7 6 4 19 6 27 2 11 -4 -25 -26 -104 -65 -66
-32 -124 -59 -129 -59 -16 0 -41 60 -35 83 4 15 3 18 -3 9 -7 -11 -14 -8 -31
14 -22 28 -27 44 -13 44 10 0 375 199 492 268 47 27 88 50 91 51 3 1 14 -8 24
-19z m-300 -290 c3 -6 -1 -7 -9 -4 -18 7 -21 14 -7 14 6 0 13 -4 16 -10z m325
-135 c-14 -8 -60 -28 -102 -46 -42 -18 -75 -36 -72 -41 3 -4 -2 -5 -10 -2 -8
3 -25 -1 -38 -10 -15 -11 -18 -16 -7 -16 8 0 21 6 28 13 11 10 13 9 8 -5 -3
-9 -1 -19 6 -21 7 -2 8 -8 4 -13 -4 -5 -12 -2 -17 6 -5 8 -12 11 -15 8 -11
-11 5 -28 26 -28 12 0 19 7 19 19 0 15 5 18 23 13 18 -5 19 -7 5 -10 -10 -2
-18 -10 -18 -18 0 -8 -7 -14 -15 -14 -8 0 -15 -5 -15 -11 0 -13 53 -2 58 12 2
5 11 9 20 9 14 0 14 -2 2 -14 -15 -13 -302 -111 -328 -111 -17 0 -67 124 -55
136 4 4 116 40 248 79 132 39 241 73 244 76 2 2 9 4 15 4 6 -1 0 -7 -14 -15z
m368 -240 c7 -14 12 -28 12 -30 0 -2 -118 -32 -262 -67 -144 -34 -253 -65
-242 -67 10 -2 23 -10 27 -18 7 -12 11 -12 23 4 12 15 13 15 8 1 -3 -9 -1 -25
6 -35 10 -16 10 -16 5 3 -4 14 -1 21 10 21 9 0 13 -6 10 -16 -2 -9 0 -23 5
-31 8 -12 10 -11 10 8 0 12 5 22 11 22 6 0 8 -9 4 -22 -6 -16 -4 -20 8 -15 8
3 18 0 20 -7 4 -10 -10 -15 -46 -19 -58 -7 -287 -43 -327 -52 -25 -5 -27 -2
-43 62 -9 37 -18 74 -20 82 -1 11 69 32 293 87 162 40 329 81 370 92 101 26
105 26 118 -3z m-3674 -299 c15 -5 10 -12 -30 -39 -55 -37 -59 -35 -69 35 l-7
48 43 -19 c24 -10 52 -21 63 -25z m3810 -98 c3 -17 4 -33 2 -35 -2 -3 -103
-11 -223 -19 -233 -16 -379 -31 -325 -33 18 0 32 -7 33 -13 0 -10 2 -10 6 0 2
6 14 12 25 12 18 0 20 -4 14 -30 -4 -21 -2 -29 5 -24 7 4 9 -3 7 -17 -3 -23 0
-24 67 -30 l70 -5 -90 -2 c-49 -2 -167 -5 -261 -8 l-171 -6 -6 53 c-3 30 -9
68 -12 86 l-7 31 73 6 c41 3 220 17 399 31 179 15 330 28 335 30 34 12 53 4
59 -27z m-447 -120 c-3 -7 -5 -2 -5 12 0 14 2 19 5 13 2 -7 2 -19 0 -25z m30
-10 c-3 -8 -6 -5 -6 6 -1 11 2 17 5 13 3 -3 4 -12 1 -19z m28 -17 c-6 -21 -25
-29 -25 -11 0 6 5 10 10 10 6 0 10 8 10 17 0 9 3 14 6 10 3 -3 3 -15 -1 -26z
m-35 -12 c0 -5 -4 -9 -10 -9 -5 0 -10 7 -10 16 0 8 5 12 10 9 6 -3 10 -10 10
-16z m-5026 -571 c3 -18 10 -91 16 -163 14 -165 34 -278 75 -437 23 -91 29
-128 20 -131 -6 -3 -41 -8 -77 -12 l-65 -7 -31 129 c-17 70 -38 166 -47 213
-21 115 -47 392 -37 402 6 6 106 34 134 37 4 1 9 -14 12 -31z m839 -932 c114
-47 169 -197 113 -306 -23 -47 -84 -97 -123 -103 -12 -2 -26 -6 -29 -10 -13
-12 -84 -7 -122 9 -71 29 -141 120 -142 183 0 33 8 23 15 -19 6 -35 43 -100
57 -100 11 0 5 23 -7 32 -5 4 -6 10 -3 14 4 3 18 -7 32 -23 14 -17 53 -44 86
-61 66 -33 79 -23 15 12 -22 11 -42 22 -44 24 -2 1 -2 5 1 8 4 3 31 -8 62 -25
56 -31 86 -39 86 -21 0 5 -7 7 -15 4 -8 -4 -15 -2 -15 2 0 5 -15 16 -32 23
-18 8 -40 23 -49 33 -9 10 -23 18 -30 18 -16 1 -63 69 -54 78 3 4 10 0 15 -7
10 -17 40 -7 40 14 0 8 -4 15 -10 15 -5 0 -7 -7 -4 -15 8 -19 -5 -19 -25 -1
-10 10 -22 12 -30 6 -11 -6 -9 -17 13 -54 15 -25 35 -47 44 -47 16 -1 16 -2
-1 -6 -19 -5 -74 53 -69 74 2 7 -4 16 -13 19 -20 8 -19 19 4 30 19 9 19 10 -5
37 -13 15 -24 23 -24 16 0 -7 8 -21 18 -32 15 -18 15 -20 0 -14 -22 8 -31 -18
-13 -37 8 -7 11 -16 8 -20 -13 -13 -22 -5 -28 24 -4 17 -11 30 -16 30 -12 0
-12 42 1 74 13 36 80 107 115 122 39 17 137 18 178 0z m4369 -278 c-23 -40
-51 -83 -64 -95 -76 -69 -1551 -800 -2273 -1125 -339 -153 -345 -156 -345
-172 0 -21 -18 -20 -87 5 -70 26 -147 75 -188 118 -27 29 -28 32 -12 48 16 16
18 16 37 -5 12 -12 24 -22 28 -22 10 0 455 184 715 296 296 127 1646 752 2082
963 77 38 142 67 144 65 1 -1 -15 -36 -37 -76z m-4612 2 c0 -5 -4 -10 -10 -10
-5 0 -10 5 -10 10 0 6 5 10 10 10 6 0 10 -4 10 -10z m-311 -158 c36 -35 103
-88 149 -119 68 -45 95 -72 152 -149 39 -52 70 -96 70 -99 0 -3 -44 -5 -97 -5
l-98 1 -59 85 c-75 106 -149 229 -190 314 -46 93 -50 110 -20 70 15 -19 57
-63 93 -98z m4593 -314 c-145 -169 -328 -335 -497 -451 -298 -203 -629 -350
-955 -422 -87 -19 -332 -56 -337 -51 -4 4 242 140 527 291 383 204 949 511
1130 613 107 61 199 111 203 111 4 1 -28 -41 -71 -91z m-3998 -296 c174 -167
370 -319 561 -432 58 -35 104 -65 102 -67 -2 -2 -56 -10 -120 -18 l-117 -16
-69 46 c-190 125 -421 322 -558 475 l-86 95 79 6 c44 3 85 6 93 7 7 1 59 -42
115 -96z m1025 7 l1 -46 -77 -16 c-43 -8 -79 -14 -80 -13 -1 1 30 40 70 86 67
78 72 82 78 59 4 -13 7 -45 8 -70z m26 -266 c3 -38 9 -77 11 -89 5 -18 -6 -24
-99 -52 -58 -18 -112 -32 -121 -32 -12 0 -159 80 -174 95 -2 2 9 17 25 34 24
27 50 37 168 71 191 53 181 54 190 -27z"/>
<path d="M4886 3944 c-4 -15 -5 -28 -4 -30 9 -9 48 10 48 23 0 12 6 13 28 7
15 -4 40 -7 56 -7 l29 0 -24 -13 c-16 -9 -19 -13 -8 -14 8 0 20 5 25 10 8 8
24 7 55 0 43 -11 108 -23 199 -36 25 -3 52 -7 60 -9 8 -1 50 -5 92 -10 43 -4
76 -10 74 -14 -2 -3 17 -4 42 -2 42 4 37 6 -48 18 -179 25 -355 54 -478 79
-68 13 -127 24 -132 24 -4 0 -11 -12 -14 -26z m31 1 c0 -8 -4 -15 -9 -15 -4 0
-8 7 -8 15 0 8 4 15 8 15 5 0 9 -7 9 -15z"/>
<path d="M4940 3936 c0 -2 7 -7 16 -10 8 -3 12 -2 9 4 -6 10 -25 14 -25 6z"/>
<path d="M5308 3863 c7 -3 16 -2 19 1 4 3 -2 6 -13 5 -11 0 -14 -3 -6 -6z"/>
<path d="M5628 3843 c7 -3 16 -2 19 1 4 3 -2 6 -13 5 -11 0 -14 -3 -6 -6z"/>
<path d="M6460 6931 c0 -5 7 -12 16 -15 24 -9 28 -7 14 9 -14 17 -30 20 -30 6z"/>
<path d="M6370 6906 c0 -2 8 -10 18 -17 15 -13 16 -12 3 4 -13 16 -21 21 -21
13z"/>
<path d="M6606 6705 c-11 -8 -15 -15 -9 -15 6 0 16 7 23 15 16 19 11 19 -14 0z"/>
<path d="M7300 5580 c0 -5 5 -10 10 -10 6 0 10 5 10 10 0 6 -4 10 -10 10 -5 0
-10 -4 -10 -10z"/>
<path d="M2896 3857 c3 -10 9 -15 12 -12 3 3 0 11 -7 18 -10 9 -11 8 -5 -6z"/>
<path d="M3080 3759 c0 -5 5 -7 10 -4 6 3 10 8 10 11 0 2 -4 4 -10 4 -5 0 -10
-5 -10 -11z"/>
<path d="M3035 3744 c11 -8 28 -21 38 -29 9 -8 22 -15 27 -15 6 0 10 -4 10 -9
0 -11 39 -26 59 -22 8 1 17 -3 22 -10 4 -8 11 -10 15 -6 4 4 -2 14 -14 22 -11
9 -28 23 -37 31 -9 9 -19 14 -22 10 -4 -3 2 -13 13 -20 27 -20 13 -29 -15 -10
-15 11 -20 22 -16 35 4 11 2 19 -5 19 -6 0 -8 -4 -5 -10 3 -5 -1 -10 -9 -10
-9 0 -16 5 -16 10 0 6 -7 10 -15 10 -8 0 -15 5 -15 10 0 6 -8 10 -17 10 -16
-1 -16 -2 2 -16z"/>
<path d="M3200 3696 c14 -13 31 -21 39 -18 10 4 9 7 -6 13 -12 4 -24 12 -28
18 -3 6 -11 11 -18 11 -6 0 0 -11 13 -24z"/>
<path d="M2960 3671 c0 -11 97 -61 118 -60 10 0 0 7 -20 16 -21 8 -38 19 -38
24 0 5 -9 9 -20 9 -11 0 -20 5 -20 10 0 6 -4 10 -10 10 -5 0 -10 -4 -10 -9z"/>
</g>
</svg>
