<?xml version="1.0" standalone="no"?>
<!DOCTYPE svg PUBLIC "-//W3C//DTD SVG 20010904//EN"
 "http://www.w3.org/TR/2001/REC-SVG-20010904/DTD/svg10.dtd">
<svg version="1.0" xmlns="http://www.w3.org/2000/svg"
 width="225.000000pt" height="225.000000pt" viewBox="0 0 225.000000 225.000000"
 preserveAspectRatio="xMidYMid meet">

<g transform="translate(0.000000,225.000000) scale(0.100000,-0.100000)"
fill="#000000" stroke="none">
<path d="M1025 1886 c-27 -7 -62 -18 -77 -24 l-28 -12 0 -113 c0 -132 14 -185
67 -246 34 -40 64 -60 118 -81 l25 -10 0 250 0 250 -27 -1 c-16 0 -50 -6 -78
-13z m15 -176 c0 -5 7 -10 16 -10 13 0 14 -3 4 -15 -6 -8 -9 -18 -6 -23 3 -5
-8 -9 -24 -9 -16 0 -27 4 -24 9 3 5 0 15 -6 23 -10 12 -9 15 4 15 9 0 16 5 16
10 0 6 5 10 10 10 6 0 10 -4 10 -10z"/>
<path d="M1152 1850 c-1 -71 23 -418 29 -424 2 -3 10 -2 16 2 8 5 5 65 -13
222 -28 255 -31 272 -32 200z"/>
<path d="M1173 1885 c4 -11 20 -103 37 -205 37 -216 37 -217 51 -203 12 12
-66 400 -84 418 -6 6 -7 3 -4 -10z"/>
<path d="M1204 1880 c3 -8 24 -85 47 -170 45 -169 53 -191 61 -169 5 15 -91
332 -105 346 -4 4 -6 1 -3 -7z"/>
<path d="M1230 1887 c0 -9 99 -270 105 -275 18 -19 -2 51 -46 153 -48 113 -59
136 -59 122z"/>
<path d="M1260 1873 c1 -5 19 -42 40 -83 l39 -75 1 68 0 68 -35 15 c-39 16
-45 17 -45 7z"/>
<path d="M505 1304 c-9 -9 -15 -28 -13 -43 2 -20 12 -29 48 -42 55 -20 71 -42
48 -65 -23 -23 -64 -11 -82 24 l-15 27 -1 -35 c0 -35 1 -35 47 -38 52 -3 83
17 83 53 0 27 -15 41 -66 58 -42 15 -58 49 -28 61 25 10 47 -1 66 -31 l17 -28
1 34 c0 25 -4 32 -15 28 -8 -4 -17 -2 -20 3 -10 16 -52 12 -70 -6z"/>
<path d="M1140 1308 c0 -5 5 -8 10 -8 6 0 10 -32 10 -75 0 -43 -4 -75 -10 -75
-5 0 -10 -4 -10 -10 0 -14 90 -12 120 3 31 15 39 56 14 74 -14 10 -15 15 -5
27 7 8 11 25 9 38 -3 21 -9 23 -71 28 -37 3 -67 2 -67 -2z m108 -37 c4 -25
-12 -41 -40 -41 -14 0 -18 8 -18 36 0 33 2 35 28 32 20 -2 28 -9 30 -27z m7
-86 c0 -27 -4 -30 -32 -33 -32 -3 -33 -2 -33 33 0 35 1 36 33 33 28 -3 32 -6
32 -33z"/>
<path d="M1648 1308 c15 -15 17 -158 2 -158 -5 0 -10 -4 -10 -10 0 -5 14 -10
32 -10 25 0 29 3 20 12 -14 14 -16 48 -3 48 15 0 33 -29 27 -45 -4 -11 2 -15
24 -15 36 0 37 2 5 36 -31 33 -31 48 -3 68 22 16 22 16 -12 16 -22 0 -30 -3
-22 -8 9 -7 8 -13 -8 -27 -20 -18 -20 -18 -20 43 0 57 -2 62 -22 62 -17 0 -19
-3 -10 -12z"/>
<path d="M651 1283 c0 -12 -9 -27 -18 -32 -10 -6 -13 -11 -6 -11 7 0 13 -20
15 -52 2 -43 7 -54 22 -56 19 -4 46 21 46 42 0 5 -6 2 -13 -9 -20 -26 -37 -10
-37 35 0 32 4 39 23 43 22 4 22 4 0 6 -16 1 -23 9 -26 29 -3 21 -4 22 -6 5z"/>
<path d="M732 1238 c-25 -31 -18 -86 13 -100 55 -25 104 37 70 88 -17 26 -65
33 -83 12z m66 -38 c1 -19 -2 -42 -8 -50 -23 -35 -63 32 -46 77 4 8 15 13 28
11 18 -2 24 -10 26 -38z"/>
<path d="M840 1240 c9 -5 11 -23 8 -59 -5 -48 -4 -51 18 -51 13 0 24 5 24 10
0 6 -4 10 -10 10 -15 0 -12 53 4 75 21 29 46 12 46 -33 0 -21 -5 -43 -12 -50
-9 -9 -5 -12 21 -12 26 0 31 3 23 13 -6 7 -12 33 -14 57 l-3 45 -59 2 c-34 1
-54 -2 -46 -7z"/>
<path d="M973 1235 c9 -8 23 -35 32 -60 14 -36 15 -48 5 -60 -9 -11 -16 -12
-25 -5 -16 13 -32 -7 -18 -21 20 -20 46 6 82 82 l37 79 -25 0 c-17 0 -22 -3
-13 -8 10 -7 10 -16 1 -42 l-12 -33 -14 27 c-8 15 -12 34 -9 42 4 10 -3 14
-25 14 -27 0 -29 -2 -16 -15z"/>
<path d="M1308 1243 c16 -6 16 -85 0 -101 -9 -9 -4 -12 22 -12 26 0 31 3 22
12 -16 16 -15 60 3 84 8 11 15 14 15 7 0 -18 30 -16 30 2 0 18 -31 20 -48 3
-9 -9 -12 -9 -12 0 0 7 -10 12 -22 11 -13 0 -17 -3 -10 -6z"/>
<path d="M1416 1228 c-21 -30 -20 -54 4 -78 24 -24 53 -26 74 -4 19 18 21 75
4 92 -20 20 -65 14 -82 -10z m68 -4 c17 -45 -6 -93 -39 -80 -15 5 -22 76 -8
89 12 13 41 7 47 -9z"/>
<path d="M1542 1238 c-17 -17 -15 -74 4 -92 21 -22 50 -20 74 4 24 24 25 48 4
78 -17 24 -62 30 -82 10z m66 -38 c3 -47 -11 -69 -35 -54 -21 13 -27 36 -19
70 5 19 12 25 29 22 17 -2 23 -10 25 -38z"/>
<path d="M580 1060 c0 -5 7 -10 15 -10 12 0 15 -14 15 -69 0 -61 3 -72 22 -85
12 -9 32 -16 43 -16 11 0 31 7 43 16 19 13 22 24 22 85 0 55 3 69 15 69 8 0
15 5 15 10 0 6 -16 10 -35 10 -19 0 -35 -4 -35 -10 0 -5 7 -10 15 -10 12 0 15
-14 15 -70 0 -67 -1 -71 -26 -81 -20 -7 -32 -6 -50 6 -21 13 -24 23 -24 77 0
46 4 64 18 74 15 12 12 13 -25 14 -24 0 -43 -4 -43 -10z"/>
<path d="M926 1063 c-11 -11 -6 -23 9 -23 8 0 15 4 15 9 0 13 -16 22 -24 14z"/>
<path d="M1425 1059 c-10 -15 3 -25 16 -12 7 7 7 13 1 17 -6 3 -14 1 -17 -5z"/>
<path d="M1490 1030 c0 -10 -8 -24 -17 -29 -10 -6 -13 -11 -6 -11 7 0 13 -20
15 -52 2 -43 7 -54 22 -56 19 -4 46 21 46 42 0 5 -6 2 -13 -9 -20 -26 -37 -10
-37 36 0 33 3 39 23 40 16 1 18 2 5 6 -11 3 -18 14 -18 29 0 13 -4 24 -10 24
-5 0 -10 -9 -10 -20z"/>
<path d="M768 993 c7 -3 12 -22 12 -48 0 -25 -5 -45 -12 -48 -7 -3 -2 -6 12
-6 23 -1 25 3 25 40 0 47 27 77 45 49 14 -22 12 -77 -2 -83 -7 -3 -1 -6 13 -6
23 -1 25 2 22 32 -9 78 -8 76 -71 75 -31 0 -51 -3 -44 -5z"/>
<path d="M909 991 c9 -6 12 -23 10 -55 -4 -44 -3 -46 21 -45 14 0 19 3 13 6
-8 3 -13 24 -13 54 0 44 -2 49 -22 49 -17 0 -19 -3 -9 -9z"/>
<path d="M994 939 l30 -61 23 53 c13 29 29 57 36 61 7 5 1 8 -15 8 -19 0 -26
-4 -22 -13 3 -8 0 -27 -6 -43 l-12 -29 -14 34 c-8 18 -11 37 -8 42 3 5 -6 9
-19 9 l-24 0 31 -61z"/>
<path d="M1103 988 c-49 -63 17 -144 70 -88 l22 22 -28 -17 c-22 -14 -30 -15
-42 -5 -28 23 -18 40 25 40 22 0 40 5 40 11 0 22 -21 49 -38 48 -10 0 -12 -3
-4 -6 6 -2 12 -13 12 -24 0 -14 -7 -19 -25 -19 -27 0 -33 18 -13 38 8 8 8 12
1 12 -6 0 -15 -6 -20 -12z"/>
<path d="M1203 993 c13 -3 17 -15 17 -48 0 -25 -5 -45 -12 -48 -7 -3 3 -5 22
-5 19 0 29 2 23 5 -16 6 -17 62 -2 83 8 11 12 12 16 3 6 -17 23 -16 23 1 0 10
-14 14 -52 14 -29 -1 -45 -3 -35 -5z"/>
<path d="M1306 984 c-8 -22 1 -34 41 -50 19 -8 33 -20 30 -27 -7 -21 -34 -19
-56 4 l-21 23 0 -25 c0 -22 4 -25 36 -24 63 0 75 59 14 71 -16 4 -30 13 -30
20 0 17 32 18 48 2 9 -9 12 -8 12 5 0 23 -65 24 -74 1z"/>
<path d="M1408 993 c7 -3 12 -23 12 -48 0 -25 -5 -45 -12 -48 -7 -3 3 -5 22
-5 19 0 29 2 23 5 -8 3 -13 24 -13 54 0 44 -2 49 -22 48 -13 0 -17 -3 -10 -6z"/>
<path d="M1582 945 c24 -44 27 -58 18 -75 -12 -23 -26 -26 -33 -7 -2 6 -8 9
-12 5 -4 -4 -5 -14 -1 -23 11 -30 46 3 77 73 17 37 36 70 42 74 7 5 0 8 -16 8
-17 0 -26 -4 -22 -11 8 -13 -2 -59 -14 -59 -4 0 -13 12 -20 27 -10 21 -9 28 1
34 8 6 2 9 -19 9 l-31 0 30 -55z"/>
<path d="M1464 736 c-3 -7 -4 -17 -3 -22 1 -5 -1 -17 -6 -27 -10 -23 -2 -30
38 -32 29 0 33 2 29 22 l-4 22 -17 -21 c-10 -12 -23 -18 -29 -14 -19 12 -14
29 7 23 13 -3 18 0 15 8 -3 7 0 16 6 20 8 5 8 11 -1 21 -15 18 -28 18 -35 0z
m28 -11 c0 -5 -5 -11 -11 -13 -6 -2 -11 4 -11 13 0 9 5 15 11 13 6 -2 11 -8
11 -13z"/>
<path d="M236 724 c-9 -24 -7 -27 9 -10 17 17 19 26 6 26 -5 0 -12 -7 -15 -16z"/>
<path d="M453 700 c0 -25 2 -35 4 -22 2 12 2 32 0 45 -2 12 -4 2 -4 -23z"/>
<path d="M620 726 c0 -9 -7 -12 -19 -9 -27 7 -39 -34 -16 -56 16 -15 16 -15 4
6 -10 17 -11 25 -2 34 16 16 36 1 30 -22 -3 -11 -1 -19 4 -19 5 0 9 18 9 40 0
22 -2 40 -5 40 -3 0 -5 -6 -5 -14z"/>
<path d="M681 693 l2 -48 6 40 6 40 14 -32 c7 -18 17 -33 21 -33 5 0 14 15 21
33 l12 32 7 -35 7 -35 2 43 c1 49 -16 56 -32 12 -6 -16 -14 -30 -18 -30 -4 0
-12 14 -18 30 -15 46 -31 36 -30 -17z"/>
<path d="M912 700 c0 -35 2 -39 7 -20 4 15 14 24 24 24 9 -1 17 3 17 8 0 6 -9
8 -19 5 -13 -3 -21 1 -24 12 -3 9 -5 -4 -5 -29z"/>
<path d="M1574 728 c-4 -7 2 -18 14 -26 29 -19 29 -46 1 -39 -16 4 -19 3 -11
-5 15 -15 42 -2 42 20 0 10 -10 24 -22 29 l-23 11 25 10 c24 10 24 11 3 11
-12 1 -25 -4 -29 -11z"/>
<path d="M869 722 c-3 -18 4 -58 11 -65 4 -5 5 4 2 18 -3 16 0 30 7 35 9 5 9
9 -3 13 -9 4 -16 3 -17 -1z"/>
<path d="M1239 724 c-3 -20 3 -59 9 -66 4 -4 7 9 6 28 -1 31 -12 60 -15 38z"/>
<path d="M1637 724 c-9 -9 9 -68 21 -70 7 -1 8 0 2 3 -14 7 -13 50 2 55 8 3 6
6 -4 10 -9 4 -18 5 -21 2z"/>
<path d="M1759 724 c-3 -20 3 -59 9 -66 4 -4 7 9 6 28 -1 31 -12 60 -15 38z"/>
<path d="M1889 722 c-3 -18 4 -58 11 -65 4 -5 5 4 2 18 -3 16 0 30 7 35 9 5 9
9 -3 13 -9 4 -16 3 -17 -1z"/>
<path d="M301 670 c1 -25 3 -37 6 -28 2 9 10 15 17 12 19 -7 39 22 31 45 -4
14 -14 20 -31 19 -22 -2 -24 -7 -23 -48z m46 24 c1 -5 -2 -16 -7 -24 -12 -20
-35 2 -26 25 6 17 27 16 33 -1z"/>
<path d="M373 696 c-2 -19 -1 -19 8 -3 6 9 17 17 24 17 18 0 20 -31 3 -50 -11
-12 -10 -12 5 0 26 20 18 55 -13 56 -20 1 -26 -4 -27 -20z"/>
<path d="M482 690 c0 -19 2 -27 5 -17 2 9 2 25 0 35 -3 9 -5 1 -5 -18z"/>
<path d="M517 714 c-4 -4 -7 -17 -7 -30 0 -24 28 -40 43 -25 6 6 2 9 -9 8 -13
-1 -20 6 -22 21 -3 23 21 32 31 12 3 -6 4 -5 3 2 -3 15 -28 22 -39 12z"/>
<path d="M812 713 c9 -2 19 -12 21 -21 3 -12 5 -10 6 6 1 17 -4 22 -21 21 -16
-1 -18 -3 -6 -6z"/>
<path d="M985 700 c-7 -22 10 -50 29 -50 6 0 4 5 -6 10 -10 6 -14 18 -11 30 6
23 14 25 32 8 10 -11 11 -10 6 5 -10 24 -42 22 -50 -3z"/>
<path d="M1051 685 c1 -28 1 -28 8 -6 10 36 31 38 32 4 1 -27 1 -27 8 -4 9 35
29 37 34 4 4 -27 4 -27 6 4 1 31 0 32 -44 30 -43 -1 -45 -2 -44 -32z"/>
<path d="M1182 713 c9 -2 19 -16 21 -31 4 -24 4 -24 6 6 1 27 -2 32 -21 31
-16 -1 -18 -3 -6 -6z"/>
<path d="M1283 685 c0 -22 2 -30 4 -17 2 12 2 30 0 40 -3 9 -5 -1 -4 -23z"/>
<path d="M1317 713 c-4 -3 -7 -16 -7 -29 0 -23 25 -40 35 -23 4 5 1 8 -7 7
-21 -5 -22 40 -1 45 14 4 14 5 2 6 -9 0 -19 -2 -22 -6z"/>
<path d="M1370 705 c0 -9 7 -18 16 -22 15 -6 15 -8 -2 -20 -10 -7 -13 -13 -7
-13 6 0 16 6 22 14 10 11 8 17 -6 25 -16 9 -16 12 -3 21 13 8 13 10 -2 10 -10
0 -18 -7 -18 -15z"/>
<path d="M1703 714 c21 -7 20 -45 -2 -52 -10 -3 -12 0 -7 14 5 15 4 16 -5 7
-15 -15 -3 -32 22 -30 29 2 23 61 -6 64 -17 2 -17 1 -2 -3z"/>
<path d="M1803 685 c0 -22 2 -30 4 -17 2 12 2 30 0 40 -3 9 -5 -1 -4 -23z"/>
<path d="M1830 705 c0 -9 7 -18 16 -22 15 -6 15 -8 -2 -20 -21 -15 -7 -18 16
-3 13 9 12 12 -5 26 -17 13 -18 16 -5 24 13 8 12 10 -2 10 -10 0 -18 -7 -18
-15z"/>
<path d="M1965 699 c-9 -27 19 -59 36 -42 8 8 6 11 -7 10 -28 -3 -30 31 -2 42
23 10 23 10 1 10 -14 1 -24 -7 -28 -20z"/>
<path d="M2025 710 c-3 -5 3 -18 15 -30 14 -14 20 -16 20 -6 0 8 -8 17 -17 21
-17 7 -16 8 2 15 16 7 17 9 3 9 -9 1 -19 -3 -23 -9z"/>
<path d="M261 703 c-1 -7 -10 -13 -21 -13 -11 0 -20 -2 -20 -4 0 -2 -3 -13 -6
-23 -5 -17 -5 -17 6 0 12 19 50 23 50 5 0 -6 2 -9 5 -6 3 3 1 16 -4 29 -5 13
-10 18 -10 12z"/>
<path d="M800 676 c0 -21 20 -30 33 -17 9 9 7 10 -7 5 -16 -6 -18 -4 -13 9 3
9 2 17 -3 17 -6 0 -10 -6 -10 -14z"/>
<path d="M1167 684 c-8 -8 3 -34 15 -34 7 0 6 5 -1 13 -6 8 -8 17 -4 20 3 4 4
7 1 7 -2 0 -7 -3 -11 -6z"/>
</g>
</svg>
