<?xml version="1.0" standalone="no"?>
<!DOCTYPE svg PUBLIC "-//W3C//DTD SVG 20010904//EN"
 "http://www.w3.org/TR/2001/REC-SVG-20010904/DTD/svg10.dtd">
<svg version="1.0" xmlns="http://www.w3.org/2000/svg"
 width="1024.000000pt" height="1024.000000pt" viewBox="0 0 1024.000000 1024.000000"
 preserveAspectRatio="xMidYMid meet">

<g transform="translate(0.000000,1024.000000) scale(0.100000,-0.100000)"
fill="#000000" stroke="none">
<path d="M3572 8155 c-19 -8 -62 -44 -98 -79 -62 -62 -64 -66 -64 -116 0 -46
4 -56 34 -86 24 -24 43 -34 65 -34 52 0 81 28 122 117 21 46 41 83 45 83 3 0
32 -15 63 -34 31 -19 153 -88 271 -153 986 -548 930 -515 930 -543 0 -34 26
-85 64 -127 l36 -40 -14 -84 c-19 -116 -34 -162 -67 -202 -31 -37 -137 -96
-264 -147 l-80 -31 -17 21 c-22 27 -23 39 -3 46 8 3 24 21 36 40 27 45 20 65
-65 188 -37 52 -66 98 -66 103 0 5 16 25 36 44 20 18 47 53 61 77 l26 44 -20
20 c-19 18 -25 19 -59 8 -22 -7 -58 -24 -82 -38 -40 -23 -47 -24 -99 -13 -126
25 -218 5 -286 -64 -56 -56 -78 -103 -85 -181 -6 -83 26 -155 93 -210 92 -74
128 -109 146 -138 l18 -30 -34 -42 c-19 -23 -35 -47 -35 -53 0 -6 15 -28 33
-48 29 -33 35 -49 45 -126 14 -109 39 -162 173 -372 217 -340 256 -410 294
-527 35 -107 36 -112 21 -150 -32 -78 -38 -138 -41 -363 -3 -226 -23 -483 -50
-639 -12 -69 -19 -84 -53 -120 -59 -63 -145 -172 -300 -383 -237 -324 -254
-344 -270 -338 -67 25 -102 27 -145 6 -53 -25 -80 -78 -101 -190 -13 -70 -18
-77 -70 -129 -64 -62 -92 -125 -104 -230 -7 -64 -9 -67 -32 -64 -44 5 -211 71
-346 137 -212 103 -371 221 -443 329 -25 38 -26 45 -29 219 l-4 179 64 -36
c209 -121 587 -276 671 -276 70 0 121 78 93 143 -19 47 -44 61 -183 108 -219
74 -445 184 -600 291 -90 63 -140 72 -193 36 -59 -40 -60 -45 -60 -360 0 -263
2 -292 20 -340 101 -267 572 -549 1190 -711 469 -123 939 -175 1495 -164 360
7 590 30 930 92 463 84 913 249 1201 440 117 77 269 230 309 310 l30 60 3 297
c3 334 0 352 -63 382 -50 24 -86 19 -151 -20 -221 -136 -327 -192 -481 -253
-330 -131 -716 -220 -1148 -266 -82 -9 -162 -20 -176 -26 -54 -21 -75 -98 -40
-155 34 -56 60 -60 259 -35 594 74 1063 206 1450 407 l142 74 0 -171 c0 -202
-2 -209 -96 -303 -208 -208 -669 -408 -1184 -515 -245 -50 -482 -79 -869 -106
l-84 -6 9 33 c4 18 9 69 10 113 0 47 8 97 17 122 23 58 84 440 172 1073 145
1035 150 1097 115 1260 -12 58 -37 139 -56 180 -18 41 -40 103 -49 138 -30
118 -131 337 -264 572 -69 121 -71 125 -49 132 13 4 59 16 104 28 152 40 162
55 171 260 6 131 -4 250 -38 449 -19 114 -19 114 1 136 11 12 20 35 20 52 0
26 -8 36 -50 63 -37 24 -50 38 -50 56 0 29 -64 79 -114 88 -18 4 -42 16 -52
27 -29 33 -69 49 -118 49 -25 0 -48 5 -51 10 -3 6 -15 10 -26 10 -10 0 -112
53 -226 119 -115 65 -347 196 -518 291 -170 95 -369 206 -440 246 -140 79
-170 86 -233 59z m1661 -1412 c-5 -61 -32 -246 -36 -248 -1 -1 -35 2 -76 5
-70 5 -75 7 -84 32 -8 26 -3 35 63 105 39 43 83 97 98 120 15 23 30 42 34 43
4 0 4 -26 1 -57z m-127 -2910 c-10 -401 -56 -901 -86 -939 -21 -24 -139 -75
-209 -90 -40 -8 -86 -21 -101 -29 -51 -27 -63 -103 -22 -149 17 -18 15 -18
-53 -12 -313 31 -835 123 -835 147 0 18 222 237 300 295 50 38 121 105 170
162 133 153 361 401 549 597 156 163 176 188 216 270 24 50 47 104 52 120 15
61 25 -117 19 -372z"/>
<path d="M5672 7684 c-59 -41 -65 -123 -12 -168 24 -19 45 -25 107 -31 757
-61 1389 -251 1647 -495 74 -70 106 -134 106 -215 0 -83 -37 -145 -138 -231
-286 -244 -814 -424 -1467 -499 -203 -23 -205 -24 -237 -55 -48 -48 -31 -133
33 -166 29 -14 43 -14 178 1 422 48 798 135 1106 257 144 57 358 170 445 234
l75 56 3 -258 c3 -297 6 -284 -103 -373 -182 -148 -459 -278 -784 -367 -133
-36 -421 -95 -564 -114 -102 -14 -142 -39 -153 -95 -7 -41 17 -97 51 -115 32
-17 116 -10 330 30 499 92 858 223 1153 422 l72 49 0 -302 0 -302 -46 -45
c-165 -158 -553 -338 -939 -436 -135 -34 -349 -73 -509 -92 -72 -9 -144 -23
-159 -31 -34 -17 -50 -56 -44 -106 6 -44 19 -62 59 -83 25 -13 42 -13 147 1
587 76 1091 240 1421 461 l65 44 3 -125 c3 -147 1 -153 -107 -233 -316 -235
-879 -407 -1551 -472 -113 -11 -144 -25 -169 -75 -17 -35 -2 -91 34 -125 31
-29 59 -29 285 0 370 47 627 103 908 195 383 127 731 345 798 501 10 25 13
271 14 1290 2 1237 2 1260 -18 1311 -30 80 -65 134 -126 196 -265 269 -846
470 -1609 557 -210 24 -275 25 -305 4z"/>
<path d="M3023 7364 c-245 -129 -425 -303 -464 -449 -8 -28 -11 -417 -10
-1299 2 -1455 -9 -1307 110 -1418 210 -197 531 -346 997 -463 218 -54 251 -56
296 -16 27 24 33 36 33 70 0 58 -30 92 -96 112 -30 9 -117 31 -194 49 -394 91
-740 251 -895 414 l-35 37 -3 120 c-2 65 -2 119 1 119 2 0 37 -22 78 -49 264
-173 691 -320 1197 -411 144 -26 178 -29 207 -20 75 25 99 110 49 169 -27 33
-56 43 -174 61 -601 91 -1179 323 -1331 533 l-29 40 0 289 0 288 78 -53 c235
-164 590 -299 1002 -382 234 -47 444 -79 476 -71 80 20 111 116 57 176 -27 29
-35 32 -198 55 -284 41 -507 95 -756 181 -295 103 -543 247 -631 368 l-28 39
0 259 0 259 58 -44 c228 -173 614 -331 1032 -421 199 -43 245 -48 284 -32 43
18 66 51 66 97 0 56 -38 95 -103 108 -426 85 -640 149 -883 265 -210 101 -383
236 -432 337 -28 58 -29 147 -2 206 41 91 160 192 330 280 115 60 140 91 121
153 -26 87 -98 102 -208 44z"/>
<path d="M5736 7235 c-43 -22 -55 -44 -56 -96 0 -65 30 -93 123 -114 177 -39
312 -91 351 -134 19 -20 19 -22 1 -41 -32 -35 -136 -79 -260 -110 -100 -25
-124 -35 -147 -60 -55 -60 -22 -161 57 -176 43 -8 182 32 326 92 81 34 121 58
166 99 71 64 93 105 93 172 -1 67 -28 120 -94 180 -82 76 -204 129 -410 183
-95 24 -112 25 -150 5z"/>
<path d="M3135 5051 c-55 -25 -79 -63 -79 -126 0 -91 76 -155 166 -140 139 24
161 216 31 271 -43 18 -70 17 -118 -5z"/>
<path d="M3659 4887 c-98 -65 -86 -208 22 -251 69 -28 146 0 180 66 24 47 24
84 0 128 -40 77 -133 103 -202 57z"/>
<path d="M6393 4891 c-50 -23 -71 -53 -78 -112 -15 -113 101 -194 205 -141
168 84 43 333 -127 253z"/>
<path d="M4225 4815 c-95 -34 -124 -147 -58 -225 46 -55 140 -64 197 -19 127
100 14 299 -139 244z"/>
<path d="M5838 4805 c-90 -49 -89 -203 1 -250 62 -32 153 -10 195 47 26 36 27
115 2 152 -39 60 -135 85 -198 51z"/>
</g>
</svg>
