<?xml version="1.0" standalone="no"?>
<!DOCTYPE svg PUBLIC "-//W3C//DTD SVG 20010904//EN"
 "http://www.w3.org/TR/2001/REC-SVG-20010904/DTD/svg10.dtd">
<svg version="1.0" xmlns="http://www.w3.org/2000/svg"
 width="876.000000pt" height="876.000000pt" viewBox="0 0 876.000000 876.000000"
 preserveAspectRatio="xMidYMid meet">

<g transform="translate(0.000000,876.000000) scale(0.100000,-0.100000)"
fill="#000000" stroke="none">
<path d="M4066 8749 c-769 -55 -1503 -311 -2153 -751 -1025 -695 -1723 -1831
-1877 -3058 -193 -1530 411 -3017 1617 -3985 1215 -976 2877 -1224 4337 -648
1475 582 2537 1946 2734 3513 193 1530 -411 3017 -1617 3985 -848 681 -1948
1022 -3041 944z m555 -124 c697 -26 1452 -274 2077 -681 1157 -756 1881 -2025
1930 -3384 33 -914 -196 -1750 -684 -2498 -756 -1157 -2020 -1879 -3382 -1930
-909 -35 -1752 196 -2500 684 -1157 756 -1879 2020 -1930 3381 -35 910 196
1753 684 2501 755 1155 2016 1876 3379 1931 94 4 197 6 230 4 33 -1 121 -5
196 -8z"/>
<path d="M4720 8399 c0 -4 -3 -14 -6 -22 -4 -11 5 -17 35 -22 21 -3 42 -13 45
-20 5 -13 -65 -452 -79 -496 -6 -19 -12 -21 -51 -15 -41 5 -44 4 -44 -18 0
-22 7 -24 193 -55 105 -17 223 -31 260 -31 108 0 167 35 188 112 20 75 -19
145 -105 186 l-39 19 39 7 c77 15 114 48 128 114 16 68 -32 138 -113 167 -36
12 -143 32 -428 79 -13 2 -23 0 -23 -5z m370 -109 c41 -22 53 -90 26 -155 -19
-44 -42 -55 -113 -55 -87 0 -87 0 -68 116 10 55 23 104 31 110 15 12 89 3 124
-16z m-108 -264 c32 -7 68 -21 82 -30 36 -23 50 -80 34 -135 -19 -62 -55 -87
-123 -84 -102 3 -108 17 -80 173 8 47 15 86 15 88 0 4 14 2 72 -12z"/>
<path d="M3612 8341 c-62 -16 -115 -31 -118 -33 -2 -3 -2 -12 2 -21 4 -10 21
-17 47 -19 36 -3 43 -7 45 -27 4 -25 -39 -201 -48 -201 -3 0 -43 38 -89 84
-84 85 -98 116 -51 116 20 0 29 33 11 44 -4 3 -74 -11 -155 -30 -138 -34 -146
-37 -146 -60 0 -21 4 -23 24 -18 21 5 45 -13 164 -125 l139 -131 22 -101 c13
-56 19 -105 14 -109 -4 -5 -24 -13 -43 -18 -27 -7 -34 -13 -32 -28 2 -10 5
-20 6 -22 3 -2 338 77 342 81 1 1 -2 12 -7 24 -7 20 -11 21 -45 12 -50 -14
-59 -4 -87 115 l-24 98 44 142 c50 161 62 182 121 213 6 3 -9 43 -16 42 -4 0
-58 -13 -120 -28z"/>
<path d="M5759 8158 c-12 -23 -14 -20 29 -42 17 -9 32 -23 32 -31 0 -25 -204
-457 -218 -463 -8 -2 -29 2 -47 11 -31 15 -33 15 -43 -7 -10 -22 -4 -26 141
-93 135 -63 153 -69 165 -55 18 23 16 27 -23 45 -19 9 -35 23 -35 31 0 13 85
204 95 214 9 10 67 -22 90 -50 32 -37 31 -44 -5 -135 -50 -124 -35 -183 54
-224 74 -33 141 -17 184 44 21 30 21 33 5 45 -23 17 -26 16 -45 -18 -17 -30
-50 -40 -63 -20 -4 6 1 44 10 85 21 92 14 134 -27 180 l-30 35 26 -10 c43 -16
124 -12 158 8 69 40 88 141 39 209 -37 52 -57 63 -289 172 -184 86 -192 89
-203 69z m284 -159 c81 -41 102 -74 86 -133 -5 -19 -21 -49 -35 -66 -21 -25
-33 -30 -69 -30 -41 0 -145 36 -145 50 0 4 20 50 45 104 28 60 51 96 60 96 9
0 35 -10 58 -21z"/>
<path d="M2653 8028 c-62 -34 -113 -64 -113 -67 0 -3 4 -12 9 -20 7 -11 15
-11 46 -1 33 11 40 10 62 -6 21 -16 152 -235 153 -255 0 -4 -97 31 -216 77
-118 46 -226 87 -239 90 -17 4 -50 -8 -119 -46 -88 -47 -94 -53 -83 -70 8 -14
18 -18 32 -13 29 9 68 5 81 -10 19 -20 202 -360 209 -388 5 -19 0 -33 -19 -56
-29 -35 -33 -51 -12 -59 22 -9 211 101 211 123 0 15 -7 18 -48 15 -36 -3 -54
1 -68 14 -21 19 -184 312 -177 319 2 2 131 -45 286 -105 155 -61 288 -110 295
-110 7 0 21 6 30 13 16 11 7 33 -107 242 -68 127 -127 240 -130 251 -5 15 2
31 20 53 20 24 24 37 18 51 -8 18 -17 15 -121 -42z"/>
<path d="M4156 7580 c-666 -52 -1273 -291 -1791 -705 -128 -102 -378 -352
-480 -480 -325 -406 -555 -898 -650 -1389 -45 -226 -58 -373 -58 -626 0 -253
13 -400 58 -626 95 -491 325 -983 650 -1389 102 -128 352 -378 480 -480 405
-324 897 -555 1385 -650 230 -45 376 -58 630 -58 254 0 400 13 630 58 488 95
980 326 1385 650 128 102 378 352 480 480 383 479 616 1035 692 1649 22 177
22 555 0 732 -76 614 -309 1170 -692 1649 -102 128 -352 378 -480 480 -405
324 -897 555 -1385 650 -266 52 -612 74 -854 55z m659 -148 c467 -72 892 -235
1270 -487 329 -220 640 -531 860 -860 636 -954 687 -2187 134 -3190 -141 -254
-308 -475 -524 -690 -480 -481 -1054 -769 -1745 -878 -115 -18 -179 -21 -430
-21 -251 0 -315 3 -430 21 -570 90 -1059 302 -1495 649 -141 113 -366 338
-479 479 -607 762 -821 1747 -581 2687 186 730 649 1382 1280 1803 417 278
906 453 1410 504 153 16 580 6 730 -17z"/>
<path d="M4200 6673 c-41 -2 -147 -10 -235 -18 -551 -53 -1061 -195 -1497
-417 l-118 -60 0 -994 c0 -629 4 -1030 11 -1092 25 -232 102 -517 199 -732
321 -712 952 -1263 1693 -1476 65 -19 120 -34 123 -34 2 0 4 1087 4 2415 l0
2415 -52 -2 c-29 -1 -87 -3 -128 -5z m-489 -1945 l177 -3 -143 -104 -142 -104
53 -161 c30 -88 53 -164 51 -169 -1 -5 -65 37 -142 93 -76 55 -144 99 -151 96
-6 -2 -71 -48 -144 -101 -72 -53 -133 -95 -135 -93 -3 2 18 71 45 153 26 83
50 158 52 167 2 12 -39 48 -141 123 l-143 105 180 0 181 0 46 147 c72 227 59
224 123 26 l55 -173 178 -2z"/>
<path d="M4533 6603 c3 -38 69 -1078 147 -2313 78 -1235 143 -2255 146 -2267
l4 -22 68 30 c37 17 105 52 152 79 l86 49 -245 2256 -246 2255 -59 0 -59 0 6
-67z"/>
<path d="M4794 6639 c3 -13 164 -955 356 -2094 193 -1138 355 -2079 359 -2090
7 -17 22 -6 124 94 65 63 117 122 117 130 0 24 -848 3962 -854 3969 -3 3 -28
7 -56 10 -50 5 -51 4 -46 -19z"/>
<path d="M5054 6604 c8 -32 964 -3508 972 -3537 6 -18 7 -17 21 3 8 11 45 79
82 151 l68 129 -520 1633 c-286 897 -521 1633 -521 1634 -1 1 -26 5 -55 9
l-54 7 7 -29z"/>
<path d="M5310 6585 c0 -5 913 -2431 1012 -2688 16 -43 31 -77 33 -75 6 6 35
195 45 291 l10 98 -485 1155 c-267 635 -490 1165 -496 1178 -8 17 -23 26 -48
31 -20 3 -44 8 -53 11 -10 3 -18 3 -18 -1z"/>
<path d="M5604 6473 c13 -27 191 -399 396 -827 204 -429 380 -796 390 -815 19
-36 19 -27 17 658 l-2 694 -130 68 c-71 38 -182 91 -245 118 -107 45 -415 151
-439 151 -6 0 -1 -21 13 -47z"/>
<path d="M6673 7542 c-71 -25 -127 -66 -168 -122 -51 -69 -67 -115 -67 -190 0
-86 14 -137 53 -190 69 -95 151 -142 260 -148 103 -6 162 14 234 80 151 138
160 346 20 482 -95 93 -224 127 -332 88z m255 -92 c111 -68 88 -188 -70 -356
-94 -98 -159 -133 -218 -115 -51 15 -90 60 -97 110 -16 120 207 380 327 381
14 0 40 -9 58 -20z"/>
<path d="M1729 7397 c-96 -36 -196 -133 -224 -218 -24 -71 -17 -178 15 -244
29 -60 101 -135 161 -166 37 -20 59 -24 139 -24 80 0 103 4 143 23 66 33 134
102 165 170 35 77 38 193 5 265 -28 60 -114 146 -177 177 -60 28 -173 37 -227
17z m100 -128 c72 -48 169 -152 202 -217 15 -30 24 -65 24 -94 0 -41 -5 -52
-36 -84 -66 -66 -140 -55 -251 38 -58 48 -143 153 -163 202 -8 19 -15 54 -15
77 0 35 6 48 39 80 35 35 44 39 89 39 42 0 60 -7 111 -41z"/>
<path d="M7335 6812 c-156 -54 -243 -181 -233 -341 9 -167 142 -298 311 -309
96 -5 167 21 243 90 82 75 108 132 109 238 0 78 -3 90 -34 148 -86 159 -242
228 -396 174z m290 -121 c40 -24 70 -89 61 -134 -19 -103 -256 -277 -377 -277
-40 0 -55 5 -83 31 -74 64 -66 141 22 229 140 138 296 201 377 151z"/>
<path d="M966 6520 c-81 -131 -149 -242 -149 -247 0 -4 42 -38 93 -75 84 -61
95 -66 106 -50 10 14 6 23 -28 60 -42 46 -68 97 -68 134 0 29 26 68 46 68 17
0 414 -246 431 -268 10 -12 9 -21 -8 -48 l-20 -33 21 -11 c12 -6 23 -10 24 -8
26 36 166 268 166 276 0 5 -7 13 -17 16 -11 5 -25 -4 -43 -26 l-27 -32 -199
123 c-232 145 -251 159 -235 190 27 49 111 64 197 35 39 -13 48 -13 55 -2 5 7
7 17 6 21 -1 5 -47 33 -102 62 l-100 54 -149 -239z"/>
<path d="M8052 5992 c-9 -7 -10 -16 -1 -41 9 -26 9 -35 -2 -46 -15 -14 -450
-165 -475 -165 -8 0 -22 16 -30 35 -15 37 -20 40 -43 26 -11 -7 -4 -37 36
-157 46 -137 52 -149 74 -149 19 0 23 4 20 20 -13 63 -10 68 68 96 l73 28 48
-22 49 -22 -85 -102 c-47 -57 -90 -103 -95 -103 -6 0 -16 14 -22 30 -11 29
-39 41 -51 21 -6 -8 81 -280 94 -294 15 -17 40 6 40 37 1 25 23 59 111 166 61
74 119 145 130 158 l18 23 103 -53 c75 -39 109 -62 126 -88 20 -29 44 -40 59
-26 3 3 -85 267 -91 273 -2 3 -14 2 -25 -2 -17 -5 -19 -10 -10 -32 12 -33 3
-63 -21 -63 -16 0 -276 112 -287 124 -3 2 51 22 119 45 l123 41 18 -21 c9 -12
17 -28 17 -36 0 -9 8 -13 23 -11 12 2 22 8 22 13 0 25 -101 305 -110 305 -5 0
-16 -4 -23 -8z"/>
<path d="M595 5810 c-3 -10 0 -29 6 -43 10 -23 8 -30 -15 -58 -46 -54 -69
-110 -74 -181 -4 -55 -1 -74 18 -113 27 -56 78 -92 142 -101 94 -13 144 24
251 186 34 52 74 102 89 110 24 13 30 13 63 -3 42 -20 69 -72 59 -115 -26
-106 -102 -166 -236 -186 -44 -7 -70 -30 -51 -46 7 -6 224 -70 237 -70 12 0 5
56 -9 74 -13 17 -10 23 30 68 25 28 51 70 61 101 21 64 21 154 0 195 -41 79
-152 127 -240 102 -58 -16 -95 -54 -162 -166 -31 -51 -63 -99 -72 -107 -53
-47 -132 -4 -132 73 0 88 64 154 175 181 64 15 79 22 83 41 2 12 -17 21 -75
37 -43 11 -92 25 -110 30 -27 8 -33 7 -38 -9z"/>
<path d="M572 4500 c-84 -51 -79 -185 9 -232 91 -49 199 15 199 117 0 106
-116 171 -208 115z"/>
<path d="M8054 4510 c-11 -4 -33 -22 -47 -40 -22 -26 -27 -42 -27 -87 0 -49 4
-59 33 -88 36 -36 89 -52 134 -41 40 11 89 65 97 109 9 49 -21 115 -63 140
-31 18 -92 22 -127 7z"/>
<path d="M1021 3571 c-11 -7 -11 -15 -2 -42 9 -26 9 -36 -1 -45 -7 -6 -94 -40
-193 -74 -99 -34 -197 -73 -218 -87 -74 -47 -95 -144 -57 -264 26 -85 57 -136
103 -173 31 -25 49 -31 100 -34 55 -3 81 3 236 58 97 34 182 58 192 55 10 -4
27 -17 38 -31 20 -26 29 -28 49 -16 9 6 5 28 -17 93 -47 137 -47 138 -70 132
-18 -5 -20 -11 -15 -43 5 -29 2 -42 -13 -57 -28 -28 -335 -133 -388 -133 -75
0 -137 77 -139 172 -1 50 23 86 74 113 51 26 373 135 382 129 6 -4 16 -21 24
-39 10 -26 18 -32 34 -28 11 3 20 8 20 12 -1 20 -108 305 -116 308 -5 1 -15
-1 -23 -6z"/>
<path d="M7655 3425 c-34 -99 -38 -117 -25 -125 19 -12 30 -13 30 -1 0 4 9 20
20 34 29 36 48 27 126 -61 l67 -77 -89 -22 c-49 -12 -106 -22 -128 -22 -37 -1
-38 0 -34 30 4 22 0 33 -15 40 -10 6 -20 9 -21 7 -11 -13 -104 -294 -100 -300
7 -11 44 -10 44 2 0 21 53 41 209 76 l164 37 81 -26 c45 -15 91 -34 103 -42
21 -15 21 -17 8 -56 -14 -38 -14 -40 8 -48 26 -10 22 -17 92 182 40 115 46
140 34 148 -23 14 -28 11 -45 -31 -10 -24 -23 -40 -32 -40 -9 0 -57 14 -107
31 -99 35 -96 33 -223 188 -65 79 -77 100 -82 140 -4 36 -9 47 -25 49 -17 2
-26 -13 -60 -113z"/>
<path d="M1408 2630 c-14 -9 -15 -13 -3 -38 27 -54 12 -72 -170 -206 -93 -69
-181 -128 -194 -131 -16 -4 -34 1 -52 14 -33 24 -43 26 -57 9 -7 -10 9 -38 60
-108 38 -52 71 -96 73 -98 2 -2 13 1 24 8 20 10 20 13 6 33 -24 35 -18 70 18
104 43 41 268 206 273 200 2 -2 -28 -138 -67 -302 -62 -261 -70 -300 -58 -322
7 -13 18 -22 25 -19 7 3 84 58 171 122 288 215 286 213 329 173 18 -17 26 -19
43 -9 13 6 19 16 14 23 -21 36 -147 197 -153 197 -20 0 -28 -26 -15 -50 23
-40 17 -64 -22 -102 -32 -30 -164 -130 -199 -151 -6 -3 16 105 48 241 l58 246
-32 46 c-101 143 -93 135 -120 120z"/>
<path d="M7148 2398 l-168 -233 38 -33 c20 -17 63 -52 94 -77 56 -45 57 -45
68 -24 10 18 8 26 -18 53 -41 43 -62 88 -62 133 0 37 22 83 39 83 11 0 414
-289 423 -303 4 -6 -2 -26 -14 -45 -20 -32 -20 -33 -2 -47 11 -7 20 -13 20
-12 186 258 193 270 176 283 -15 11 -21 9 -45 -16 -15 -17 -31 -30 -34 -30
-14 0 -415 293 -420 307 -4 10 5 26 25 45 40 35 97 37 174 8 49 -19 54 -19 65
-3 7 9 12 17 10 18 -7 6 -198 125 -200 125 -1 0 -77 -105 -169 -232z"/>
<path d="M6610 1808 c-176 -150 -165 -138 -147 -155 14 -14 18 -13 45 6 17 11
35 21 41 21 14 0 331 -375 331 -391 0 -7 -12 -26 -27 -41 -25 -26 -26 -29 -10
-45 16 -16 18 -16 39 3 24 21 230 196 237 201 3 2 -3 11 -12 20 -16 16 -19 16
-47 -6 -17 -12 -37 -21 -45 -19 -14 3 -335 377 -335 390 0 4 14 20 32 37 27
25 30 32 19 45 -8 9 -16 16 -20 16 -3 -1 -49 -37 -101 -82z"/>
<path d="M2106 1803 c-4 -10 3 -26 19 -43 14 -14 25 -32 25 -38 0 -13 -308
-402 -317 -402 -3 0 -21 10 -40 21 -32 20 -36 20 -51 6 -9 -9 -14 -18 -11 -20
213 -171 262 -208 275 -203 21 8 17 30 -11 56 -14 13 -25 29 -25 36 0 17 308
404 322 404 5 0 23 -10 40 -21 27 -20 31 -20 46 -6 9 9 14 18 11 20 -191 154
-260 207 -267 207 -6 0 -13 -7 -16 -17z"/>
<path d="M6052 1418 c-5 -7 -12 -23 -16 -34 -5 -18 -16 -22 -71 -26 -132 -11
-235 -104 -235 -213 0 -86 29 -138 95 -173 41 -22 139 -19 252 7 118 27 119
27 154 -8 42 -43 41 -93 -6 -136 -79 -76 -206 -65 -309 26 -30 26 -38 29 -56
19 -20 -11 -19 -14 37 -121 32 -60 63 -109 69 -109 16 0 31 20 39 53 7 26 10
27 69 27 103 0 225 73 255 153 18 48 13 114 -13 165 -28 56 -49 76 -99 97 -49
20 -84 19 -207 -10 -131 -31 -145 -31 -175 0 -57 56 -17 138 80 165 57 16 107
4 182 -46 99 -64 110 -44 42 81 -52 93 -67 108 -87 83z"/>
<path d="M2676 1385 c-3 -8 6 -26 20 -41 24 -23 26 -30 20 -87 -3 -34 -8 -168
-12 -297 -3 -129 -8 -242 -10 -251 -4 -16 32 -39 61 -39 8 0 103 86 212 191
109 105 209 198 222 207 13 9 45 19 70 22 81 9 66 31 -61 88 -103 47 -114 50
-125 35 -18 -23 -17 -26 17 -45 62 -35 31 -86 -163 -261 l-79 -71 6 35 c3 19
8 109 12 200 3 91 10 172 14 179 7 11 14 12 36 1 25 -11 30 -10 41 5 7 10 10
21 6 25 -12 11 -256 119 -269 119 -7 0 -14 -7 -18 -15z"/>
<path d="M3626 1023 c-8 -19 9 -33 41 -33 12 0 26 -7 31 -16 9 -16 -42 -453
-58 -491 -8 -19 -17 -23 -50 -23 -37 0 -41 -2 -38 -22 3 -22 14 -24 288 -60
157 -20 287 -35 289 -32 6 5 40 184 40 212 1 43 -34 25 -70 -35 -48 -81 -96
-105 -201 -101 -42 2 -82 8 -89 15 -9 9 -8 39 2 125 14 112 14 113 42 116 35
4 87 -45 87 -82 0 -13 7 -32 16 -40 33 -33 36 -25 54 134 6 52 13 105 16 118
4 18 0 22 -20 22 -17 0 -27 -8 -36 -30 -18 -42 -56 -70 -98 -70 l-35 0 7 78
c12 133 17 147 54 150 51 5 137 -25 172 -59 19 -20 36 -52 47 -89 10 -39 22
-60 34 -63 21 -6 25 9 35 135 l6 87 -33 5 c-46 8 -500 66 -515 66 -6 0 -15 -8
-18 -17z"/>
<path d="M4845 1005 c-104 -19 -198 -34 -207 -34 -12 -1 -18 -9 -18 -26 0 -24
2 -25 38 -19 26 4 41 2 49 -8 17 -21 93 -491 81 -505 -6 -7 -26 -15 -45 -19
-24 -5 -33 -11 -29 -21 3 -8 6 -18 6 -22 0 -4 64 3 143 16 191 31 187 30 187
53 0 17 -7 20 -45 20 -28 0 -48 5 -51 13 -9 25 -41 227 -36 232 3 3 31 5 63 5
50 0 60 -3 78 -26 11 -14 25 -51 31 -82 27 -137 49 -162 139 -162 99 0 165 58
159 140 -2 28 -8 36 -25 38 -21 3 -23 -1 -23 -36 0 -41 -17 -66 -37 -54 -6 4
-25 38 -42 77 -40 89 -73 124 -125 132 l-40 6 50 22 c89 40 123 101 103 182
-18 70 -88 114 -179 112 -19 0 -120 -16 -225 -34z m189 -35 c33 -12 55 -47 62
-101 9 -62 -23 -100 -104 -123 -32 -9 -65 -16 -73 -16 -18 0 -56 207 -41 222
23 23 116 34 156 18z"/>
</g>
</svg>
